# xmcd CD database file
#
# Track frame offsets:
#	150
#	17007
#	30347
#	40299
#	53444
#	82645
#	93741
#	108033
#	128877
#	140764
#
# Disc length: 2112 seconds
#
# Revision: 0
# Processed by: cddbd v1.5.1PL2 Copyright (c) Steve Scherf et al.
# Submitted via: CDex 1.40Release
#
DISCID=70083e0a
DTITLE=Clarence 'Gatemouth' Brown - All Right Again!
DYEAR=1981
DGENRE=Blues
TTITLE0=Frosty
TTITLE1=Strollin' With Bones
TTITLE2=Give Me Time To Explain
TTITLE3=Baby Take It Easy
TTITLE4=Sometimes I Slip 
TTITLE5=I Feel Alright Again 
TTITLE6=Alligator Boogaloo 
TTITLE7=Dollar Got The Blues 
TTITLE8=Honey In The Be-Bo 
TTITLE9=Gate Walks To Board 
EXTD=YEAR: 1981 ID3G: 0
EXTT0=
EXTT1=
EXTT2=
EXTT3=
EXTT4=
EXTT5=
EXTT6=
EXTT7=
EXTT8=
EXTT9=
PLAYORDER=
